<mxfile host="app.diagrams.net" modified="2021-06-30T07:44:42.696Z" agent="5.0 (X11; Linux x86_64) AppleWebKit/537.36 (KHTML, like Gecko) Chrome/91.0.4472.77 Safari/537.36" etag="7kZAV8WKVKXxrywyo-D1" version="14.2.6" type="github" pages="2">
  <diagram id="C5RBs43oDa-KdzZeNtuy" name="Page-1">
    <mxGraphModel dx="1266" dy="894" grid="1" gridSize="10" guides="1" tooltips="1" connect="1" arrows="1" fold="1" page="1" pageScale="1" pageWidth="1169" pageHeight="1654" math="0" shadow="0">
      <root>
        <mxCell id="WIyWlLk6GJQsqaUBKTNV-0" />
        <mxCell id="WIyWlLk6GJQsqaUBKTNV-1" parent="WIyWlLk6GJQsqaUBKTNV-0" />
        <mxCell id="26MwjbwnC8p-9oIjR-8m-0" value="OrdersCommandController" style="shape=umlLifeline;perimeter=lifelinePerimeter;whiteSpace=wrap;html=1;container=1;collapsible=0;recursiveResize=0;outlineConnect=0;" vertex="1" parent="WIyWlLk6GJQsqaUBKTNV-1">
          <mxGeometry x="20" y="60" width="200" height="300" as="geometry" />
        </mxCell>
        <mxCell id="26MwjbwnC8p-9oIjR-8m-1" value="CreateOrderCommand" style="shape=umlLifeline;perimeter=lifelinePerimeter;whiteSpace=wrap;html=1;container=1;collapsible=0;recursiveResize=0;outlineConnect=0;" vertex="1" parent="WIyWlLk6GJQsqaUBKTNV-1">
          <mxGeometry x="310" y="60" width="160" height="300" as="geometry" />
        </mxCell>
        <mxCell id="26MwjbwnC8p-9oIjR-8m-3" value="" style="html=1;points=[];perimeter=orthogonalPerimeter;" vertex="1" parent="26MwjbwnC8p-9oIjR-8m-1">
          <mxGeometry x="75" y="114" width="10" height="30" as="geometry" />
        </mxCell>
        <mxCell id="26MwjbwnC8p-9oIjR-8m-4" value="createOrder" style="html=1;verticalAlign=bottom;endArrow=block;entryX=0;entryY=0;" edge="1" parent="WIyWlLk6GJQsqaUBKTNV-1" source="26MwjbwnC8p-9oIjR-8m-0">
          <mxGeometry relative="1" as="geometry">
            <mxPoint x="149.32352941176464" y="173" as="sourcePoint" />
            <mxPoint x="385" y="173" as="targetPoint" />
            <Array as="points">
              <mxPoint x="280" y="173" />
            </Array>
          </mxGeometry>
        </mxCell>
        <mxCell id="26MwjbwnC8p-9oIjR-8m-6" value="CommandGateway" style="shape=umlLifeline;perimeter=lifelinePerimeter;whiteSpace=wrap;html=1;container=1;collapsible=0;recursiveResize=0;outlineConnect=0;" vertex="1" parent="WIyWlLk6GJQsqaUBKTNV-1">
          <mxGeometry x="770" y="60" width="120" height="300" as="geometry" />
        </mxCell>
        <mxCell id="26MwjbwnC8p-9oIjR-8m-7" value="" style="html=1;points=[];perimeter=orthogonalPerimeter;" vertex="1" parent="26MwjbwnC8p-9oIjR-8m-6">
          <mxGeometry x="55" y="170" width="10" height="50" as="geometry" />
        </mxCell>
        <mxCell id="26MwjbwnC8p-9oIjR-8m-8" value="sendAndWait(CreateOrderCommand)" style="html=1;verticalAlign=bottom;endArrow=block;" edge="1" target="26MwjbwnC8p-9oIjR-8m-6" parent="WIyWlLk6GJQsqaUBKTNV-1" source="26MwjbwnC8p-9oIjR-8m-0">
          <mxGeometry x="0.2658" relative="1" as="geometry">
            <mxPoint x="149.32352941176464" y="227" as="sourcePoint" />
            <mxPoint x="735" y="227" as="targetPoint" />
            <Array as="points">
              <mxPoint x="230" y="230" />
            </Array>
            <mxPoint as="offset" />
          </mxGeometry>
        </mxCell>
        <mxCell id="26MwjbwnC8p-9oIjR-8m-10" value="OrderAggregate" style="shape=umlLifeline;perimeter=lifelinePerimeter;whiteSpace=wrap;html=1;container=1;collapsible=0;recursiveResize=0;outlineConnect=0;" vertex="1" parent="WIyWlLk6GJQsqaUBKTNV-1">
          <mxGeometry x="485" y="300" width="100" height="540" as="geometry" />
        </mxCell>
        <mxCell id="26MwjbwnC8p-9oIjR-8m-14" value="" style="html=1;points=[];perimeter=orthogonalPerimeter;" vertex="1" parent="26MwjbwnC8p-9oIjR-8m-10">
          <mxGeometry x="46" y="90" width="10" height="180" as="geometry" />
        </mxCell>
        <mxCell id="26MwjbwnC8p-9oIjR-8m-22" value="" style="html=1;points=[];perimeter=orthogonalPerimeter;" vertex="1" parent="26MwjbwnC8p-9oIjR-8m-10">
          <mxGeometry x="45" y="420" width="10" height="80" as="geometry" />
        </mxCell>
        <mxCell id="26MwjbwnC8p-9oIjR-8m-11" value="AXON Server" style="shape=umlLifeline;perimeter=lifelinePerimeter;whiteSpace=wrap;html=1;container=1;collapsible=0;recursiveResize=0;outlineConnect=0;" vertex="1" parent="WIyWlLk6GJQsqaUBKTNV-1">
          <mxGeometry x="1050" y="60" width="100" height="1060" as="geometry" />
        </mxCell>
        <mxCell id="26MwjbwnC8p-9oIjR-8m-12" value="" style="html=1;points=[];perimeter=orthogonalPerimeter;" vertex="1" parent="26MwjbwnC8p-9oIjR-8m-11">
          <mxGeometry x="45" y="180" width="10" height="180" as="geometry" />
        </mxCell>
        <mxCell id="26MwjbwnC8p-9oIjR-8m-24" value="" style="html=1;points=[];perimeter=orthogonalPerimeter;" vertex="1" parent="26MwjbwnC8p-9oIjR-8m-11">
          <mxGeometry x="45" y="520" width="10" height="540" as="geometry" />
        </mxCell>
        <mxCell id="26MwjbwnC8p-9oIjR-8m-13" value="dispatch" style="html=1;verticalAlign=bottom;startArrow=oval;endArrow=block;startSize=8;" edge="1" target="26MwjbwnC8p-9oIjR-8m-12" parent="WIyWlLk6GJQsqaUBKTNV-1" source="26MwjbwnC8p-9oIjR-8m-6">
          <mxGeometry relative="1" as="geometry">
            <mxPoint x="975" y="240" as="sourcePoint" />
          </mxGeometry>
        </mxCell>
        <mxCell id="26MwjbwnC8p-9oIjR-8m-15" value="constructor(CreateOrderCommand)" style="html=1;verticalAlign=bottom;startArrow=oval;endArrow=block;startSize=8;" edge="1" target="26MwjbwnC8p-9oIjR-8m-14" parent="WIyWlLk6GJQsqaUBKTNV-1" source="26MwjbwnC8p-9oIjR-8m-11">
          <mxGeometry relative="1" as="geometry">
            <mxPoint x="1030" y="400" as="sourcePoint" />
            <Array as="points">
              <mxPoint x="1040" y="390" />
            </Array>
          </mxGeometry>
        </mxCell>
        <mxCell id="26MwjbwnC8p-9oIjR-8m-16" value="AggregateLifecycle" style="shape=umlLifeline;perimeter=lifelinePerimeter;whiteSpace=wrap;html=1;container=1;collapsible=0;recursiveResize=0;outlineConnect=0;" vertex="1" parent="WIyWlLk6GJQsqaUBKTNV-1">
          <mxGeometry x="890" y="480" width="120" height="340" as="geometry" />
        </mxCell>
        <mxCell id="26MwjbwnC8p-9oIjR-8m-20" value="" style="html=1;points=[];perimeter=orthogonalPerimeter;" vertex="1" parent="26MwjbwnC8p-9oIjR-8m-16">
          <mxGeometry x="55" y="70" width="10" height="80" as="geometry" />
        </mxCell>
        <mxCell id="26MwjbwnC8p-9oIjR-8m-17" value="OrderCreatedEvent" style="shape=umlLifeline;perimeter=lifelinePerimeter;whiteSpace=wrap;html=1;container=1;collapsible=0;recursiveResize=0;outlineConnect=0;" vertex="1" parent="WIyWlLk6GJQsqaUBKTNV-1">
          <mxGeometry x="650" y="400" width="140" height="320" as="geometry" />
        </mxCell>
        <mxCell id="26MwjbwnC8p-9oIjR-8m-18" value="" style="html=1;points=[];perimeter=orthogonalPerimeter;" vertex="1" parent="26MwjbwnC8p-9oIjR-8m-17">
          <mxGeometry x="65" y="60" width="10" height="130" as="geometry" />
        </mxCell>
        <mxCell id="26MwjbwnC8p-9oIjR-8m-19" value="constructor" style="html=1;verticalAlign=bottom;startArrow=oval;endArrow=block;startSize=8;" edge="1" target="26MwjbwnC8p-9oIjR-8m-18" parent="WIyWlLk6GJQsqaUBKTNV-1" source="26MwjbwnC8p-9oIjR-8m-10">
          <mxGeometry relative="1" as="geometry">
            <mxPoint x="655" y="460" as="sourcePoint" />
          </mxGeometry>
        </mxCell>
        <mxCell id="26MwjbwnC8p-9oIjR-8m-21" value="apply(OrderCreatedEvent)" style="html=1;verticalAlign=bottom;startArrow=oval;endArrow=block;startSize=8;" edge="1" target="26MwjbwnC8p-9oIjR-8m-20" parent="WIyWlLk6GJQsqaUBKTNV-1" source="26MwjbwnC8p-9oIjR-8m-17">
          <mxGeometry x="0.0705" y="10" relative="1" as="geometry">
            <mxPoint x="885" y="550" as="sourcePoint" />
            <mxPoint as="offset" />
          </mxGeometry>
        </mxCell>
        <mxCell id="26MwjbwnC8p-9oIjR-8m-23" value="on(OrderCreatedEvent" style="html=1;verticalAlign=bottom;startArrow=oval;endArrow=block;startSize=8;" edge="1" parent="WIyWlLk6GJQsqaUBKTNV-1">
          <mxGeometry x="-0.0357" relative="1" as="geometry">
            <mxPoint x="1100" y="726" as="sourcePoint" />
            <mxPoint x="539.9999999999998" y="726" as="targetPoint" />
            <mxPoint as="offset" />
          </mxGeometry>
        </mxCell>
        <mxCell id="26MwjbwnC8p-9oIjR-8m-25" value="dispatch" style="html=1;verticalAlign=bottom;startArrow=oval;endArrow=block;startSize=8;exitX=-0.386;exitY=0.396;exitDx=0;exitDy=0;exitPerimeter=0;" edge="1" target="26MwjbwnC8p-9oIjR-8m-24" parent="WIyWlLk6GJQsqaUBKTNV-1" source="26MwjbwnC8p-9oIjR-8m-20">
          <mxGeometry relative="1" as="geometry">
            <mxPoint x="1035" y="580" as="sourcePoint" />
          </mxGeometry>
        </mxCell>
        <mxCell id="26MwjbwnC8p-9oIjR-8m-26" value="OrderEventsHandler" style="shape=umlLifeline;perimeter=lifelinePerimeter;whiteSpace=wrap;html=1;container=1;collapsible=0;recursiveResize=0;outlineConnect=0;" vertex="1" parent="WIyWlLk6GJQsqaUBKTNV-1">
          <mxGeometry x="220" y="910" width="130" height="330" as="geometry" />
        </mxCell>
        <mxCell id="26MwjbwnC8p-9oIjR-8m-32" value="" style="html=1;points=[];perimeter=orthogonalPerimeter;" vertex="1" parent="26MwjbwnC8p-9oIjR-8m-26">
          <mxGeometry x="60" y="130" width="10" height="200" as="geometry" />
        </mxCell>
        <mxCell id="26MwjbwnC8p-9oIjR-8m-27" value="@EventSourcingHandler" style="text;html=1;strokeColor=none;fillColor=none;align=center;verticalAlign=middle;whiteSpace=wrap;rounded=0;" vertex="1" parent="WIyWlLk6GJQsqaUBKTNV-1">
          <mxGeometry x="760" y="740" width="100" height="10" as="geometry" />
        </mxCell>
        <mxCell id="26MwjbwnC8p-9oIjR-8m-29" value="OrderSaga" style="shape=umlLifeline;perimeter=lifelinePerimeter;whiteSpace=wrap;html=1;container=1;collapsible=0;recursiveResize=0;outlineConnect=0;" vertex="1" parent="WIyWlLk6GJQsqaUBKTNV-1">
          <mxGeometry x="400" y="827" width="100" height="300" as="geometry" />
        </mxCell>
        <mxCell id="26MwjbwnC8p-9oIjR-8m-30" value="" style="html=1;points=[];perimeter=orthogonalPerimeter;" vertex="1" parent="26MwjbwnC8p-9oIjR-8m-29">
          <mxGeometry x="45" y="63" width="10" height="80" as="geometry" />
        </mxCell>
        <mxCell id="26MwjbwnC8p-9oIjR-8m-31" value="handle(OrderCreatedEvent)" style="html=1;verticalAlign=bottom;startArrow=oval;endArrow=block;startSize=8;" edge="1" target="26MwjbwnC8p-9oIjR-8m-30" parent="WIyWlLk6GJQsqaUBKTNV-1" source="26MwjbwnC8p-9oIjR-8m-11">
          <mxGeometry relative="1" as="geometry">
            <mxPoint x="385" y="970" as="sourcePoint" />
            <Array as="points">
              <mxPoint x="530" y="900" />
            </Array>
          </mxGeometry>
        </mxCell>
        <mxCell id="26MwjbwnC8p-9oIjR-8m-33" value="on(OrderCratedEvent)" style="html=1;verticalAlign=bottom;startArrow=oval;endArrow=block;startSize=8;" edge="1" target="26MwjbwnC8p-9oIjR-8m-32" parent="WIyWlLk6GJQsqaUBKTNV-1" source="26MwjbwnC8p-9oIjR-8m-11">
          <mxGeometry x="0.0117" relative="1" as="geometry">
            <mxPoint x="220" y="1040" as="sourcePoint" />
            <mxPoint as="offset" />
          </mxGeometry>
        </mxCell>
        <mxCell id="26MwjbwnC8p-9oIjR-8m-34" value="@EventHandler" style="text;html=1;strokeColor=none;fillColor=none;align=center;verticalAlign=middle;whiteSpace=wrap;rounded=0;" vertex="1" parent="WIyWlLk6GJQsqaUBKTNV-1">
          <mxGeometry x="630" y="1050" width="100" height="10" as="geometry" />
        </mxCell>
        <mxCell id="26MwjbwnC8p-9oIjR-8m-35" value="@StartSaga&lt;br&gt;@SagaEventHandler" style="text;html=1;strokeColor=none;fillColor=none;align=center;verticalAlign=middle;whiteSpace=wrap;rounded=0;" vertex="1" parent="WIyWlLk6GJQsqaUBKTNV-1">
          <mxGeometry x="710" y="920" width="100" height="10" as="geometry" />
        </mxCell>
        <mxCell id="26MwjbwnC8p-9oIjR-8m-36" value="SpringDataJpa&lt;br&gt;(Repository)" style="shape=umlLifeline;perimeter=lifelinePerimeter;whiteSpace=wrap;html=1;container=1;collapsible=0;recursiveResize=0;outlineConnect=0;" vertex="1" parent="WIyWlLk6GJQsqaUBKTNV-1">
          <mxGeometry x="340" y="1120" width="100" height="140" as="geometry" />
        </mxCell>
        <mxCell id="26MwjbwnC8p-9oIjR-8m-37" value="" style="html=1;points=[];perimeter=orthogonalPerimeter;" vertex="1" parent="26MwjbwnC8p-9oIjR-8m-36">
          <mxGeometry x="45" y="62" width="10" height="80" as="geometry" />
        </mxCell>
        <mxCell id="26MwjbwnC8p-9oIjR-8m-38" value="save" style="html=1;verticalAlign=bottom;startArrow=oval;endArrow=block;startSize=8;" edge="1" parent="WIyWlLk6GJQsqaUBKTNV-1">
          <mxGeometry x="-0.1579" y="-21" relative="1" as="geometry">
            <mxPoint x="290" y="1189" as="sourcePoint" />
            <mxPoint x="384.9999999999998" y="1189" as="targetPoint" />
            <mxPoint as="offset" />
          </mxGeometry>
        </mxCell>
      </root>
    </mxGraphModel>
  </diagram>
  <diagram id="UyY13dxjDHKAtZ4xJ5oZ" name="Page-2">
    <mxGraphModel dx="886" dy="565" grid="1" gridSize="10" guides="1" tooltips="1" connect="1" arrows="1" fold="1" page="1" pageScale="1" pageWidth="827" pageHeight="1169" math="0" shadow="0">
      <root>
        <mxCell id="T7pxok0AfqIIInPsmJqR-0" />
        <mxCell id="T7pxok0AfqIIInPsmJqR-1" parent="T7pxok0AfqIIInPsmJqR-0" />
      </root>
    </mxGraphModel>
  </diagram>
</mxfile>
